<?xml version="1.0" encoding="utf-8"?>
<!-- Generator: Adobe Illustrator 28.0.0, SVG Export Plug-In . SVG Version: 6.00 Build 0)  -->
<svg version="1.1" id="Layer_1" xmlns="http://www.w3.org/2000/svg" xmlns:xlink="http://www.w3.org/1999/xlink" x="0px" y="0px"
	 viewBox="0 0 18 18" style="enable-background:new 0 0 18 18;" xml:space="preserve">
<style type="text/css">
	.st0{fill:#64BC47;}
	.st1{fill:#992022;}
	.st2{clip-path:url(#SVGID_00000158017215501654290460000010533988303157660822_);fill:#FFFFFF;}
	.st3{fill:#FFFFFF;}
</style>
<g>
	<path class="st0" d="M15.48,18H2.52C1.13,18,0,16.87,0,15.48V2.52C0,1.13,1.13,0,2.52,0h12.96C16.87,0,18,1.13,18,2.52v12.96
		C18,16.87,16.87,18,15.48,18z"/>
</g>
<g>
	<g>
		<path class="st1" d="M13.08,9.11c-0.03,1.53-1.28,2.77-2.82,2.77c-1.56,0-2.82-1.26-2.82-2.82s1.26-2.82,2.82-2.82
			c0.43,0,0.83,0.09,1.19,0.26L9.03,2.61H8.97L1,15.39h16L13.08,9.11z"/>
		<g>
			<defs>
				<path id="SVGID_1_" d="M8.97,2.61L1,15.39h16l-3.91-6.28c-0.03,1.53-1.28,2.77-2.82,2.77c-1.56,0-2.82-1.26-2.82-2.82
					c0-1.56,1.26-2.82,2.82-2.82c0.43,0,0.83,0.09,1.19,0.26L9.03,2.61H8.97z"/>
			</defs>
			<clipPath id="SVGID_00000149353594701907116760000013213028883498424238_">
				<use xlink:href="#SVGID_1_"  style="overflow:visible;"/>
			</clipPath>
			
				<rect x="2.37" y="12.6" style="clip-path:url(#SVGID_00000149353594701907116760000013213028883498424238_);fill:#FFFFFF;" width="13.25" height="0.19"/>
		</g>
		<path d="M11.33,7.12c-0.05-0.01-0.11,0.01-0.16-0.01c-0.07-0.03-0.14-0.08-0.21-0.11c-0.16-0.07-0.33-0.14-0.52-0.04
			c0-0.07,0.04-0.13,0.04-0.2c0.03-0.05,0.04-0.1,0.04-0.16c0-0.19-0.14-0.35-0.33-0.35c-0.19,0-0.35,0.14-0.35,0.33
			c0,0.09,0.03,0.18,0.09,0.24c0.01,0.02,0.01,0.03,0.03,0.05C9.98,6.9,9.98,6.96,9.98,7c0,0.01-0.02,0.03-0.04,0.03
			C9.75,7.01,9.61,7.11,9.46,7.22C9.36,7.3,9.35,7.41,9.33,7.5C9.32,7.56,9.36,7.65,9.41,7.7c0.07,0.08,0.15,0.14,0.24,0.2
			c0.1,0.06,0.2,0.09,0.31,0.14c0.03,0.01,0.07,0.04,0.07,0.07c0.01,0.12,0,0.25,0.03,0.37c0.03,0.11,0.01,0.13,0,0.17
			c-0.03,0.08-0.09,0.1-0.2,0.17C9.72,8.89,9.58,8.98,9.51,9.13c-0.03,0.06-0.05,0.12-0.05,0.2c0,0.29,0.33,0.57,0.58,0.6
			c0.03,0,0.06,0.06,0.07,0.09c0.01,0.12,0,0.25,0.01,0.38c0.01,0.13-0.1,0.13-0.17,0.17c-0.08,0.05-0.17,0.09-0.22,0.16
			c-0.03,0.04-0.02,0.14,0,0.19c0.07,0.17,0.22,0.22,0.38,0.27c0.02,0.01,0.04,0.03,0.05,0.05c0.01,0.07,0.02,0.14,0.01,0.21
			c0,0.03-0.04,0.07-0.06,0.08c-0.09,0.02-0.18,0.03-0.22,0.13c0.06-0.01,0.12-0.01,0.18-0.01c0.1,0,0.13,0.03,0.1,0.12c0,0,0,0,0,0
			c-0.01,0.01-0.01,0.02-0.01,0.04c0,0.05,0.04,0.09,0.08,0.09c0.05,0,0.09-0.04,0.09-0.08c0-0.01,0-0.03-0.01-0.04h0
			c0,0,0,0,0-0.01c0,0,0,0,0-0.01c-0.01-0.01-0.01-0.02-0.01-0.03c-0.02-0.06,0.01-0.1,0.08-0.13c0.06-0.02,0.12-0.06,0.18-0.09
			c0.09-0.05,0.15-0.2,0.09-0.28c-0.07-0.08-0.17-0.13-0.26-0.2c-0.02-0.02-0.05-0.03-0.06-0.05c-0.01-0.06-0.01-0.13-0.01-0.19
			c0-0.03,0.03-0.06,0.06-0.08c0.05-0.02,0.11-0.02,0.15-0.05c0.11-0.09,0.26-0.13,0.31-0.28c0.04-0.1,0.12-0.21,0.05-0.33
			c-0.03-0.05-0.07-0.08-0.12-0.11c-0.1-0.06-0.2-0.14-0.31-0.16c-0.13-0.02-0.13-0.09-0.13-0.18c0.01-0.19,0.01-0.39,0.03-0.58
			c0-0.03,0.03-0.07,0.06-0.09c0.12-0.07,0.25-0.13,0.37-0.2c0.15-0.09,0.2-0.25,0.16-0.42c-0.07-0.24-0.25-0.36-0.48-0.43
			c-0.03-0.01-0.07-0.06-0.07-0.09c-0.01-0.15,0.01-0.3,0-0.45c0-0.09,0.06-0.08,0.11-0.08c0.18,0,0.35,0.02,0.53,0.03
			c0.01,0,0.04,0,0.04-0.01c0.04-0.13,0.13-0.07,0.21-0.07c0.03,0,0.06-0.02,0.1-0.02C11.38,7.15,11.36,7.12,11.33,7.12 M9.85,7.6
			c-0.09-0.06-0.09-0.15,0-0.21C9.87,7.37,9.89,7.37,9.9,7.35C9.99,7.25,9.99,7.33,10,7.4C10,7.5,10.01,7.59,10.01,7.69
			C9.95,7.66,9.9,7.63,9.85,7.6 M10.08,9.06c0.01,0.2,0.01,0.39,0.02,0.59C9.73,9.44,9.85,9.23,10.08,9.06 M10.13,10.98
			c-0.04-0.05-0.11-0.08-0.12-0.13c-0.01-0.03,0.06-0.08,0.09-0.12c0.01,0.01,0.02,0.02,0.03,0.03c0,0.06,0.01,0.13,0.01,0.19
			C10.14,10.95,10.14,10.96,10.13,10.98 M10.35,10.12c0-0.02,0.04-0.05,0.06-0.05c0.08,0.01,0.14,0.05,0.15,0.14
			c0.01,0.06-0.13,0.2-0.19,0.18c-0.02-0.01-0.03-0.05-0.04-0.07C10.35,10.25,10.34,10.18,10.35,10.12 M10.33,11.26
			c0-0.01,0.03-0.02,0.03-0.01c0.02,0.02,0.05,0.05,0.06,0.08c0.01,0.02,0,0.05-0.02,0.06c-0.02,0.02-0.05,0.04-0.1,0.07
			C10.32,11.38,10.32,11.32,10.33,11.26 M10.41,8.24c0-0.01,0.03-0.02,0.05-0.03c0.04,0.06,0.12,0.1,0.08,0.2
			c-0.01,0.02-0.02,0.05-0.03,0.07c-0.03,0.03-0.06,0.04-0.09,0.07c-0.01-0.03-0.03-0.06-0.03-0.06C10.4,8.38,10.4,8.31,10.41,8.24"
			/>
		<path class="st3" d="M5.97,12.9c-0.01-0.04-0.01-0.07-0.02-0.11c0-0.01,0-0.02,0-0.02l-0.07-0.38c-0.03-0.14-0.06-0.29-0.09-0.43
			c-0.01-0.06-0.03-0.12-0.03-0.18c-0.01-0.07-0.06-0.07-0.11-0.08c-0.01,0-0.05,0.02-0.06,0.04c-0.03,0.07-0.05,0.14-0.07,0.22
			c-0.05,0.19-0.09,0.37-0.13,0.56c0,0.01-0.01,0.02-0.01,0.03l-0.05,0.23c0,0.01,0,0.02,0,0.03c-0.07,0.27-0.13,0.54-0.2,0.81
			c-0.06,0.26-0.13,0.53-0.19,0.79c-0.01,0.05-0.02,0.1-0.03,0.16c-0.01,0.05-0.04,0.06-0.08,0.06c-0.08,0-0.15,0-0.23-0.01
			c-0.04,0-0.08-0.03-0.11-0.05c-0.06-0.05-0.1-0.06-0.17-0.02c-0.06,0.04-0.1,0.06-0.16,0c-0.04-0.04-0.1-0.03-0.15,0.01
			c-0.09,0.06-0.1,0.06-0.2,0c-0.04-0.02-0.1-0.02-0.14-0.01c-0.04,0.01-0.07,0.05-0.11,0.07c-0.07,0.03-0.06,0.08-0.02,0.12
			c0.04,0.05,0.09,0.05,0.13,0.01c0.04-0.04,0.08-0.04,0.11-0.01c0.08,0.07,0.17,0.07,0.26,0.01c0.04-0.02,0.06-0.03,0.09,0.01
			c0.04,0.04,0.12,0.04,0.19-0.01c0.04-0.04,0.07-0.02,0.12,0c0.08,0.03,0.17,0.05,0.25,0.05c0.1,0,0.19,0,0.29-0.02
			c0.03-0.01,0.06-0.06,0.07-0.09c0.04-0.15,0.07-0.3,0.11-0.46c0.05-0.21,0.11-0.41,0.16-0.62c0.05-0.19,0.09-0.37,0.13-0.56
			c0.02-0.09,0.04-0.17,0.06-0.26c0-0.01,0-0.01,0.01-0.02l0.08-0.32l0,0c0.02-0.09,0.04-0.17,0.05-0.26c0.01,0,0.02,0,0.03,0
			c0.03,0.13,0.06,0.26,0.09,0.4c0,0,0,0-0.01,0L5.8,12.9c0.03,0.12,0.06,0.25,0.08,0.37c0.04,0.2,0.08,0.41,0.12,0.61
			c0.02,0.12,0.05,0.24,0.08,0.37c0.03,0.13,0.05,0.26,0.08,0.39c0.02,0.12,0.03,0.13,0.15,0.13c0.14,0,0.28,0,0.43,0
			c0.06,0,0.1-0.02,0.14-0.07c0.28-0.35,0.56-0.69,0.85-1.04c0.03-0.04,0.06-0.08,0.11-0.13c0.05,0.07,0.1,0.13,0.15,0.19
			c0.07,0.09,0.13,0.17,0.2,0.26c0.05,0.06,0.1,0.07,0.18,0.04c0.21-0.1,0.42-0.21,0.64-0.31c0.02-0.01,0.07,0,0.09,0.01
			c0.08,0.08,0.14,0.17,0.21,0.25c0.14,0.15,0.28,0.3,0.41,0.46c0.02,0.02,0.03,0.05,0.05,0.07c0.05,0.07,0.13,0.08,0.19,0.01
			c0.12-0.15,0.25-0.31,0.37-0.47c0.03-0.04,0.05-0.05,0.09-0.02c0.13,0.1,0.26,0.21,0.4,0.31c0.06,0.05,0.12,0.07,0.21,0.05
			c0.16-0.04,0.32-0.06,0.48-0.09c0.04-0.01,0.09-0.02,0.13-0.03c0.04-0.01,0.07-0.01,0.09,0.03c0.05,0.12,0.14,0.15,0.27,0.15
			c0.4-0.02,0.8-0.01,1.19-0.02c0.05,0,0.1-0.01,0.15-0.05c0.02-0.02,0.08-0.02,0.11-0.01c0.03,0,0.05,0.03,0.08,0.04
			c0.09,0.06,0.09,0.06,0.17-0.03c0.01-0.01,0.05-0.01,0.07,0c0.08,0.06,0.12,0.07,0.19,0.01c0.07-0.07,0.15-0.06,0.23-0.04
			c0.09,0.02,0.18,0.04,0.28,0.06c0.04,0.01,0.06,0,0.07-0.04c0.01-0.04,0.04-0.09-0.02-0.11c-0.16-0.04-0.32-0.07-0.48-0.1
			c-0.03,0-0.07,0.02-0.09,0.05c-0.05,0.03-0.09,0.04-0.13-0.01c-0.09-0.08-0.12-0.1-0.2,0.01c-0.01,0.02-0.05,0.02-0.07,0.01
			c-0.02,0-0.05-0.03-0.07-0.04c-0.06-0.03-0.12-0.03-0.16,0.01c-0.05,0.05-0.11,0.06-0.17,0.06c-0.38,0-0.76,0-1.14,0.01
			c-0.06,0-0.09-0.02-0.12-0.07c-0.05-0.11-0.11-0.13-0.27-0.1c-0.19,0.04-0.38,0.07-0.57,0.1c-0.03,0.01-0.08-0.01-0.11-0.02
			c-0.15-0.11-0.3-0.23-0.45-0.34c-0.09-0.07-0.14-0.07-0.21,0.02c-0.12,0.15-0.23,0.3-0.35,0.45c-0.03,0.03-0.04,0.03-0.07,0
			c-0.22-0.26-0.44-0.51-0.67-0.76c-0.06-0.07-0.11-0.07-0.19-0.03c-0.19,0.09-0.38,0.19-0.57,0.28c-0.06,0.03-0.11,0.03-0.16-0.04
			c-0.1-0.14-0.21-0.27-0.32-0.4c-0.06-0.07-0.11-0.08-0.17-0.01c-0.08,0.09-0.15,0.19-0.23,0.28c-0.07,0.09-0.15,0.18-0.22,0.26
			c-0.03,0.04-0.06,0.07-0.08,0.11c-0.15,0.18-0.29,0.36-0.44,0.54C6.75,14.59,6.72,14.6,6.7,14.6c-0.11,0-0.22,0-0.33,0
			c-0.04,0-0.06-0.01-0.07-0.06c-0.04-0.23-0.1-0.47-0.14-0.7C6.1,13.53,6.04,13.22,5.97,12.9L5.97,12.9z"/>
		<path class="st3" d="M10.53,13.1c0,0.12-0.1,0.22-0.22,0.22c-0.12,0-0.22-0.1-0.22-0.22s0.1-0.22,0.22-0.22
			C10.44,12.88,10.53,12.98,10.53,13.1"/>
	</g>
</g>
</svg>
