<svg xmlns="http://www.w3.org/2000/svg" xmlns:xlink="http://www.w3.org/1999/xlink" xml:space="preserve" id="Layer_1" x="0" y="0" version="1.1" viewBox="0 0 360 137.51"><style>.st3{fill:#fff}.st4{fill:#272525}</style><path d="M95.72 117.76H21.29c-5.11 0-9.28-4.16-9.28-9.28V34.05c0-5.11 4.16-9.28 9.28-9.28h74.43c5.11 0 9.28 4.16 9.28 9.28v74.43c0 5.12-4.17 9.28-9.28 9.28" style="fill:#87bf52"/><path d="M79.6 71.86c-.15 7.93-6.62 14.3-14.58 14.3-8.06 0-14.59-6.53-14.59-14.59s6.53-14.59 14.59-14.59c2.2 0 4.28.49 6.15 1.36L58.64 38.26h-.28l-41.18 66.02h82.65z" style="fill:#80292b"/><defs><path id="SVGID_1_" d="m58.37 38.26-41.19 66.02h82.65L79.6 71.86c-.15 7.93-6.62 14.3-14.59 14.3-8.06 0-14.59-6.53-14.59-14.59s6.53-14.59 14.59-14.59c2.2 0 4.28.49 6.15 1.36L58.64 38.26z"/></defs><clipPath id="SVGID_00000059284804225043771550000005518239018147917459_"><use xlink:href="#SVGID_1_" style="overflow:visible"/></clipPath><path d="M24.27 89.85h68.46v.97H24.27z" style="clip-path:url(#SVGID_00000059284804225043771550000005518239018147917459_);fill:#fff"/><path d="M70.53 61.54c-.27-.05-.57.03-.82-.06-.38-.14-.72-.4-1.1-.57-.84-.36-1.68-.71-2.67-.21.01-.34.18-.68.23-1.01.14-.25.22-.53.23-.83a1.76 1.76 0 0 0-1.72-1.81 1.76 1.76 0 0 0-1.81 1.72c-.01.48.16.91.46 1.24.03.08.07.17.14.26.12.16.09.44.1.67 0 .05-.13.15-.19.15-1-.08-1.72.44-2.48.99-.55.4-.59.95-.69 1.46-.06.31.17.76.41 1.03.35.4.78.74 1.23 1.01.49.29 1.06.46 1.58.71.16.08.37.23.38.37.07.63-.02 1.29.13 1.9.15.57.06.66-.02.88-.15.39-.46.49-1.03.86-.64.41-1.37.88-1.74 1.62-.14.29-.25.62-.26 1.03-.01 1.52 1.69 2.96 3.01 3.08.13.01.33.29.34.46.05.64-.01 1.3.05 1.94.07.69-.5.66-.86.89-.4.25-.87.46-1.15.82-.17.21-.12.7 0 1 .34.87 1.15 1.15 1.97 1.4.1.03.23.15.24.24.05.35.09.72.06 1.07-.01.15-.19.38-.33.42-.45.11-.91.16-1.13.65.33-.03.64-.07.95-.08.54-.02.67.14.54.64a.444.444 0 0 0 .38.65c.24.01.44-.19.45-.43 0-.07-.02-.14-.04-.2-.01-.01-.01-.02-.02-.03 0-.01-.01-.02-.02-.03a.5.5 0 0 1-.06-.16c-.08-.32.05-.53.39-.65.32-.11.62-.3.92-.47.47-.25.79-1.04.46-1.43-.36-.42-.88-.69-1.33-1.03-.11-.08-.27-.17-.29-.27-.05-.33-.07-.67-.03-1 .02-.14.18-.32.32-.39.24-.12.57-.09.77-.25.56-.46 1.34-.7 1.62-1.44.21-.53.61-1.07.26-1.68-.13-.23-.38-.43-.62-.58-.51-.32-1.02-.75-1.58-.84-.67-.11-.66-.46-.65-.93.04-1 .07-2.01.13-3.01.01-.17.15-.39.29-.47.63-.36 1.3-.66 1.92-1.02.76-.45 1.05-1.3.81-2.17-.36-1.26-1.29-1.87-2.47-2.23-.16-.05-.36-.31-.37-.48-.03-.77.04-1.54 0-2.31-.02-.48.33-.44.56-.43.9.02 1.81.09 2.71.13.07 0 .21-.02.22-.05.2-.65.69-.36 1.1-.36.16 0 .33-.08.49-.12-.11-.08-.23-.23-.37-.26m-7.63 2.47c-.48-.3-.48-.79 0-1.1.08-.05.18-.08.24-.14.5-.55.48-.11.51.26.03.48.06.96.09 1.5-.32-.2-.58-.36-.84-.52m1.16 7.58c.04 1.02.07 1.99.11 3.05-1.9-1.1-1.27-2.2-.11-3.05m.28 9.91c-.23-.23-.56-.42-.6-.66-.03-.17.31-.42.48-.63.05.05.1.09.15.14.02.33.03.66.05.98-.01.03-.04.06-.08.17m1.16-4.46c.02-.11.23-.28.32-.26.39.07.71.25.78.71.04.3-.68 1.04-.96.94-.1-.03-.13-.24-.18-.34.01-.39-.01-.72.04-1.05m-.12 5.89c0-.03.15-.08.16-.07.12.13.26.26.33.41.04.08-.03.24-.09.33-.1.12-.25.19-.49.38.03-.41.05-.73.09-1.05m.43-15.58c.01-.07.18-.12.27-.17.19.32.63.54.39 1.02-.06.11-.08.26-.16.34-.14.13-.31.23-.47.34-.07-.14-.14-.29-.16-.33.05-.49.07-.85.13-1.2"/><path d="M42.86 91.41c-.04-.19-.08-.38-.11-.57-.01-.04-.01-.08-.02-.12l-.37-1.96c-.16-.75-.31-1.5-.47-2.24-.07-.32-.13-.63-.17-.95-.04-.34-.32-.35-.54-.42-.08-.02-.26.12-.3.23-.15.37-.27.74-.37 1.13-.24.97-.47 1.94-.67 2.91-.01.05-.03.1-.04.14l-.27 1.16c0 .05-.01.1-.02.16-.35 1.4-.69 2.81-1.03 4.21-.33 1.36-.67 2.73-1 4.09-.06.27-.12.53-.17.8-.04.25-.2.32-.43.32-.4-.01-.8.01-1.19-.03-.19-.02-.39-.15-.55-.27-.31-.26-.54-.3-.87-.08-.29.2-.54.3-.85-.02-.22-.23-.53-.16-.79.03-.46.33-.51.31-1.03.03-.2-.11-.5-.09-.73-.04-.21.05-.37.24-.57.34-.34.17-.29.39-.1.63.2.26.45.23.65.04.21-.2.39-.19.59-.03.44.34.89.36 1.34.05.19-.13.31-.13.48.04.22.22.64.21.96-.05.23-.18.38-.11.63-.01.4.16.86.25 1.29.27.49.02 1-.02 1.48-.11.15-.03.32-.3.37-.48.22-.78.39-1.57.58-2.36.27-1.06.55-2.12.81-3.19.23-.96.44-1.92.66-2.88.1-.45.22-.9.32-1.35.01-.04.02-.08.04-.11l.43-1.65c.09-.44.18-.88.28-1.32h.15c.15.66.29 1.33.45 2.05h-.03l.29 1.6c.15.64.31 1.27.44 1.92.21 1.04.4 2.1.6 3.14.12.63.27 1.26.4 1.9.14.67.27 1.34.4 2.01.12.62.18.69.79.69.74 0 1.47-.01 2.21 0 .31.01.51-.1.7-.34 1.46-1.79 2.92-3.57 4.38-5.35.16-.2.33-.4.56-.67.27.35.53.67.78 1 .34.44.67.89 1.02 1.33.23.3.53.37.91.19 1.1-.52 2.19-1.07 3.29-1.59.12-.05.36-.01.44.08.39.42.73.88 1.11 1.3.7.79 1.42 1.57 2.13 2.35.1.11.18.24.26.36.28.38.67.41.96.05.64-.8 1.28-1.59 1.9-2.4.16-.21.28-.25.49-.09.68.54 1.37 1.07 2.05 1.61.31.25.62.37 1.06.26.82-.2 1.67-.31 2.5-.46.22-.04.44-.08.65-.15s.37-.04.46.18c.27.61.71.79 1.4.76 2.05-.08 4.11-.06 6.17-.08.28 0 .52-.06.75-.26.13-.1.39-.08.58-.05.14.02.26.13.39.21.49.3.48.29.87-.14.05-.06.27-.04.35.02.4.3.64.37.97.06.37-.35.77-.29 1.18-.21.48.09.95.2 1.42.31.21.05.31 0 .34-.21s.22-.48-.11-.56c-.81-.19-1.63-.36-2.46-.49-.15-.02-.34.13-.48.23-.25.18-.44.19-.69-.03-.45-.4-.62-.5-1.03.04-.06.08-.26.1-.38.07-.13-.02-.24-.13-.36-.19-.29-.14-.6-.18-.83.07-.25.26-.55.31-.88.31-1.97.01-3.94.02-5.91.04-.3 0-.48-.09-.61-.38-.24-.55-.59-.66-1.38-.51q-1.47.285-2.94.54a.82.82 0 0 1-.55-.13c-.78-.57-1.55-1.17-2.31-1.77-.49-.38-.7-.37-1.08.11-.6.77-1.21 1.55-1.82 2.32-.14.17-.22.17-.37-.01q-1.71-1.98-3.45-3.93c-.32-.36-.54-.37-.99-.14-.98.49-1.96.97-2.94 1.45-.33.16-.56.17-.81-.19-.51-.72-1.09-1.4-1.64-2.09-.29-.37-.55-.41-.86-.06-.42.46-.78.97-1.17 1.45-.38.46-.77.91-1.16 1.37-.15.18-.29.37-.44.56-.76.94-1.52 1.88-2.29 2.81-.07.08-.2.16-.3.17-.56.01-1.12 0-1.68.01-.22 0-.32-.04-.37-.29-.23-1.21-.49-2.41-.74-3.62-.34-1.62-.66-3.25-.99-4.88" class="st3"/><path d="M66.43 92.47a1.14 1.14 0 1 1-2.279.001 1.14 1.14 0 0 1 2.279-.001" class="st3"/><path d="M117.83 67.56c0-1.69.61-3.15 1.82-4.38s2.79-1.84 4.73-1.84c1.48 0 2.62.39 3.42 1.16q1.2 1.155 1.2 3.21v12.4h-3.45c0-.59-.3-.89-.89-.89-.35 0-1.04.15-2.1.44-1.05.3-1.91.44-2.56.44-1.25 0-2.33-.36-3.24-1.07-.91-.72-1.37-1.79-1.37-3.22 0-.59.07-1.15.2-1.68l3.35-.03c-.07.36-.1.76-.1 1.21 0 1.12.57 1.68 1.7 1.68.43 0 1.08-.12 1.96-.36s1.49-.36 1.84-.36c.51 0 .91.14 1.21.42v-9q0-.765-.27-1.08c-.18-.21-.48-.32-.89-.32-.79 0-1.5.33-2.15 1-.64.67-.96 1.42-.96 2.26 0 1 .58 1.5 1.75 1.5.36 0 .71-.03 1.04-.1v3.01c-.51.12-1.03.17-1.55.17-1.53 0-2.69-.39-3.49-1.17-.8-.76-1.2-1.9-1.2-3.4M148.45 71.9c0 1.99-.65 3.62-1.95 4.91q-1.95 1.92-5.28 1.92c-2.32 0-4.15-.59-5.5-1.76s-2.02-2.73-2.02-4.67h3.48c0 1.1.39 1.96 1.16 2.56.77.61 1.73.91 2.88.91 1.28 0 2.27-.32 2.97-.97s1.05-1.57 1.05-2.77c-.94.41-1.87.62-2.81.62-1.58 0-2.7-.58-3.35-1.73-.82-1.35-1.79-2.02-2.91-2.02-1.04 0-1.55.52-1.55 1.55 0 .31.03.62.07.91h-3.43c-.07-.35-.1-.74-.1-1.18q0-1.92 1.17-3.12c.78-.8 1.89-1.2 3.34-1.2 1.1 0 2.05.33 2.84.99v-2.52h-8.41v-2.76h19.58v2.76h-7.72v4.04c0 .87.44 1.31 1.33 1.31q1.38 0 4.44-1.53c.49 1.17.72 2.42.72 3.75M162.61 78.29c-.26.05-.56.07-.89.07-1.66 0-2.94-.63-3.85-1.89q-1.35-1.89-1.41-5.19c-.02-1.15.03-2.19.14-3.12s.3-1.81.58-2.65.65-1.54 1.11-2.11 1.06-1.02 1.8-1.34c.74-.33 1.59-.49 2.56-.49h.81v2.76h-.71q-.81 0-1.38.42c-.38.28-.67.62-.86 1.02-.2.4-.35.94-.47 1.62-.12.67-.19 1.29-.21 1.84s-.04 1.24-.04 2.06c0 2.7.75 4.04 2.24 4.04.26 0 .45-.01.57-.02v2.98z" class="st4"/><path d="M179.74 64.33h-2.83v13.78h-3.45v-2.1c0-1.2-.31-2.16-.92-2.88s-1.48-1.09-2.58-1.09c-.69 0-1.23.14-1.62.43s-.58.69-.58 1.2.18.89.53 1.13c.35.25.8.37 1.34.37.3 0 .61-.02.94-.05v2.84q-.69.15-1.65.15c-1.37 0-2.49-.39-3.37-1.16q-1.32-1.155-1.32-3.3c0-1.08.28-1.99.85-2.72s1.33-1.25 2.3-1.57c-.18-.87-.55-1.5-1.1-1.87q-.825-.57-2.31-.57v-2.59h-1.5v-2.76h17.26v2.76zm-6.28 6.66v-6.66h-6.34c.99.44 1.78 1.08 2.38 1.92s.98 1.8 1.15 2.88c1.28.23 2.22.84 2.81 1.86" class="st4"/><path d="M185.91 64.33h-2.1v13.78h-3.45V64.33h-2.1v-2.76h2.1v-1.04c0-1.74.56-3.04 1.69-3.9 1.12-.85 2.67-1.28 4.62-1.28 1.17 0 2.38.14 3.64.41s2.22.55 2.9.85v2.61c-.72-.26-1.69-.51-2.9-.75s-2.33-.36-3.37-.36c-2.07 0-3.11.8-3.11 2.39v1.06h2.07v2.77z" class="st4"/><path d="M201.39 70.92c0 2.04-.63 3.75-1.9 5.13s-3.02 2.07-5.28 2.07c-2.38 0-4.32-.78-5.82-2.33s-2.24-3.74-2.24-6.57c0-.81.03-1.5.1-2.1h3.4c-.07.59-.1 1.24-.1 1.95 0 1.99.43 3.5 1.28 4.54s1.98 1.55 3.38 1.55c1.3 0 2.29-.37 2.96-1.12s1.01-1.75 1.01-3c-.87.41-1.75.62-2.64.62-1.33 0-2.35-.36-3.04-1.08-.7-.72-1.05-1.77-1.05-3.13v-3.11h-6.53v-2.76h17.7v2.76h-7.72v3.06c0 .87.44 1.31 1.33 1.31q1.38 0 4.44-1.53c.49 1.16.72 2.41.72 3.74" class="st4"/><path d="M209.38 78.29c-.26.05-.58.07-.94.07-.9 0-1.69-.19-2.37-.58q-1.005-.585-1.62-1.59c-.4-.67-.7-1.42-.9-2.24s-.3-1.71-.32-2.66c0-3.44.49-5.75 1.48-6.95h-3.08v-2.76h8.61v2.76h-.81c-.61 0-1.11.18-1.52.54-.4.36-.69.9-.88 1.6-.18.71-.3 1.42-.37 2.15-.07.72-.1 1.61-.1 2.66 0 2.7.75 4.04 2.24 4.04.26 0 .45-.01.57-.02v2.98z" class="st4"/><path d="M228.15 71.53c0 1.55-.42 2.75-1.25 3.62s-1.98 1.31-3.44 1.31c-.23 0-.4-.01-.52-.02v-3.11h.25c1.08 0 1.63-.6 1.63-1.8 0-.81-.29-1.47-.88-2-.58-.53-1.41-.82-2.48-.89v9.47h-3.33v-.02l-.02.02-7.45-5.15v-3.3c1.35-1.08 2.59-1.96 3.72-2.63s2.38-1.13 3.75-1.39v-1.31h-8.88v-2.76h20.22v2.76h-8.01v1.31c1.76.05 3.31.6 4.66 1.66 1.35 1.07 2.03 2.48 2.03 4.23m-10.01 2.99v-5.77c-1.43.48-2.9 1.34-4.41 2.59z" class="st4"/><path d="M246.12 78.12h-3.45v-7.13c0-1.22-.45-1.82-1.36-1.82-.94 0-1.41.71-1.41 2.15v.59h-3.53v-.76c0-1.31-.49-1.97-1.48-1.97-.49 0-.87.18-1.12.53s-.38.8-.38 1.34c0 1.3.62 1.95 1.87 1.95.28 0 .61-.02.99-.07v2.89c-.44.07-.9.1-1.38.1-1.51 0-2.71-.44-3.6-1.33s-1.33-2.08-1.33-3.58c0-1.4.41-2.53 1.22-3.4s1.95-1.31 3.42-1.31q1.485 0 2.4.63c.62.42 1 .94 1.15 1.57.16-.62.48-1.15.94-1.58s1.07-.64 1.82-.64 1.35.24 1.78.72v-2.64h-14.18V61.6h19.73v2.76h-2.1zM267.45 78.12H264v-4.17c0-1.61-.5-2.42-1.5-2.42-.33 0-.64.14-.92.42q-.435.42-.81 1.02c-.25.4-.54.81-.86 1.22s-.76.76-1.32 1.04-1.22.42-1.97.42q-1.005 0-1.92-.3v-2.84c.44.13.92.2 1.43.2.31 0 .61-.09.9-.26s.5-.34.64-.5.35-.46.63-.88.47-.69.57-.83c-.2-1.1-.65-1.93-1.34-2.49-.7-.56-1.59-.84-2.68-.84v-2.59h-1.43v-2.76h16.18v2.76h-2.12v13.8zm-5.72-9.5c1.05 0 1.81.32 2.27.96v-5.25h-5.99c1.91.82 3.11 2.25 3.62 4.29z" class="st4"/><path d="M276.2 64.33h-2.1v13.78h-3.45V65.86c0-.64-.09-1.06-.26-1.25s-.52-.28-1.05-.28h-.79v-2.76h1.23q.81 0 1.23.84c-.17-.89-.25-1.68-.25-2.37v-.44h3.33v1.97h2.1v2.76z" class="st4"/><path d="M282.86 64.33h-2.1v13.78h-3.45V64.33h-2.1v-2.76h2.1v-.79c0-1.58.54-2.84 1.62-3.77 1.08-.94 2.54-1.41 4.4-1.41 1.22 0 2.43.18 3.65.55s2.24.82 3.08 1.34l1.18-1.16h3.38v.1l-4.19 4.14h-3.4v-.1l1.08-1.06c-1.69-.71-3.26-1.06-4.71-1.06-1.74 0-2.61.8-2.61 2.39v.81h2.07z" class="st4"/><path d="M299.83 64.33h-17.95v-2.76h17.95zm-1.53 7.89c0 1.84-.62 3.33-1.86 4.45-1.24 1.13-2.89 1.69-4.94 1.69-2.37 0-4.31-.78-5.82-2.35s-2.27-3.63-2.27-6.18c0-.61.02-1.1.05-1.48h3.3c-.03.36-.05.83-.05 1.41 0 1.81.42 3.21 1.27 4.22q1.275 1.5 3.51 1.5c2.12 0 3.34-.82 3.67-2.47-.69.21-1.44.32-2.24.32-1.27 0-2.31-.36-3.14-1.07s-1.25-1.69-1.25-2.92.41-2.21 1.23-2.95c.82-.73 1.93-1.1 3.33-1.1.66 0 1.41.08 2.27.25v2.74c-.53-.07-1.04-.1-1.53-.1-1.23 0-1.85.39-1.85 1.16q0 1.23 1.8 1.23c.58 0 1.25-.12 2.04-.36.78-.24 1.47-.54 2.06-.9q.42 1.365.42 2.91" class="st4"/><path d="M306.58 78.29c-.26.05-.58.07-.94.07-.9 0-1.69-.19-2.37-.58q-1.005-.585-1.62-1.59c-.4-.67-.7-1.42-.9-2.24s-.3-1.71-.32-2.66c0-3.44.49-5.75 1.48-6.95h-3.08v-2.76h8.61v2.76h-.81c-.61 0-1.11.18-1.52.54-.4.36-.69.9-.88 1.6-.18.71-.3 1.42-.37 2.15-.07.72-.1 1.61-.1 2.66 0 2.7.75 4.04 2.24 4.04.26 0 .45-.01.57-.02v2.98z" class="st4"/><path d="M320.51 78.12h-3.45v-4.17c0-1.61-.5-2.42-1.5-2.42-.33 0-.64.14-.92.42q-.435.42-.81 1.02c-.25.4-.54.81-.86 1.22s-.76.76-1.32 1.04-1.22.42-1.97.42q-1.005 0-1.92-.3v-2.84c.44.13.92.2 1.43.2.31 0 .61-.09.9-.26s.5-.34.64-.5.35-.46.63-.88.47-.69.57-.83c-.2-1.1-.65-1.93-1.34-2.49-.7-.56-1.59-.84-2.68-.84v-2.59h-1.43v-2.76h16.18v2.76h-2.12v13.8zm-5.72-9.5c1.05 0 1.81.32 2.27.96v-5.25h-5.99c1.91.82 3.11 2.25 3.62 4.29z" class="st4"/><path d="M335.68 78.12h-3.45v-4.17c0-1.61-.5-2.42-1.5-2.42-.33 0-.64.14-.92.42q-.435.42-.81 1.02c-.25.4-.54.81-.86 1.22s-.76.76-1.32 1.04-1.22.42-1.97.42q-1.005 0-1.92-.3v-2.84c.44.13.92.2 1.43.2.31 0 .61-.09.9-.26s.5-.34.64-.5.35-.46.63-.88.47-.69.57-.83c-.2-1.1-.65-1.93-1.34-2.49-.7-.56-1.59-.84-2.68-.84v-2.59h-1.43v-2.76h16.18v2.76h-2.12v13.8zm-5.72-9.5c1.05 0 1.81.32 2.27.96v-5.25h-5.99c1.91.82 3.11 2.25 3.62 4.29zM133.65 40.46c0 .87-.12 1.66-.36 2.39 1.27.08 2.21.56 2.81 1.45V33.17h-21.92v-3.39h29.03c.67 0 1.17.34 1.51 1.03-.2-1.09-.3-2.06-.3-2.9v-.54h4.08v2.42h2.57v3.39h-2.57v16.9h-4.23V35.05c0-.79-.11-1.3-.32-1.53s-.64-.35-1.29-.35h-2.33v16.9h-4.23q0-3.84-3.69-3.84h-1.27c-1.59 1.43-3.58 2.15-5.96 2.15-2.74 0-4.97-.81-6.7-2.42q-2.58-2.415-2.58-7.26c0-.85.06-1.73.18-2.66h4.08c-.14.93-.21 1.83-.21 2.72 0 2 .47 3.49 1.41 4.49s2.17 1.5 3.7 1.5c1.43 0 2.51-.42 3.25-1.25.74-.84 1.1-1.88 1.1-3.13 0-.77-.14-1.39-.42-1.88s-.71-.73-1.27-.73c-.48 0-.86.18-1.13.53s-.41.81-.41 1.38c0 .54.11 1.13.33 1.75h-3.63c-.32-.69-.48-1.46-.48-2.33q0-2.175 1.41-3.45c1.41-1.275 2.18-1.27 3.74-1.27 1.83 0 3.31.57 4.43 1.72 1.11 1.17 1.67 2.62 1.67 4.37" class="st4"/><path d="M158.63 33.17h-2.57v16.9h-4.23v-16.9h-2.57v-3.39h2.57v-1.27c0-2.14.69-3.73 2.07-4.78s3.27-1.57 5.67-1.57c1.43 0 2.92.17 4.46.5s2.73.68 3.55 1.04v3.21c-.89-.32-2.07-.63-3.55-.92s-2.86-.44-4.13-.44c-2.54 0-3.81.98-3.81 2.93v1.3h2.54z" class="st4"/><path d="M177.98 33.17h-3.48v16.9h-4.23V47.5c0-1.47-.38-2.65-1.13-3.54-.76-.89-1.81-1.33-3.16-1.33-.85 0-1.51.18-1.98.53s-.71.84-.71 1.47c0 .62.22 1.09.65 1.39s.98.45 1.65.45c.36 0 .75-.02 1.15-.06v3.48c-.57.12-1.24.18-2.03.18-1.67 0-3.05-.47-4.13-1.42q-1.62-1.425-1.62-4.05c0-1.33.35-2.44 1.04-3.34.7-.9 1.64-1.54 2.83-1.92-.22-1.07-.67-1.83-1.35-2.3-.68-.46-1.62-.7-2.83-.7v-3.18h-1.84v-3.39h21.17zm-7.71 8.17v-8.17h-7.77c1.21.54 2.18 1.33 2.92 2.36s1.2 2.21 1.41 3.54c1.56.26 2.71 1.02 3.44 2.27" class="st4"/><path d="M192.28 50.08h-4.23c-.12-.85-.29-1.7-.51-2.57s-.52-1.77-.89-2.72q-.555-1.425-1.44-2.31c-.58-.59-1.23-.89-1.94-.89-.69 0-1.2.22-1.54.67-.34.44-.51 1.03-.51 1.75 0 .56.05 1.12.15 1.66h-4.11c-.18-.75-.27-1.44-.27-2.09 0-1.59.49-2.94 1.48-4.05s2.36-1.66 4.11-1.66c2.46 0 4.28 1.2 5.47 3.6v-8.29h-12.49v-3.39h19.02v3.39h-2.3zM219.92 41.25c0 2.5-.78 4.6-2.33 6.29s-3.71 2.54-6.47 2.54c-2.92 0-5.3-.95-7.14-2.86-1.83-1.9-2.75-4.59-2.75-8.06 0-.99.04-1.84.12-2.57h4.17c-.08.73-.12 1.52-.12 2.39 0 2.44.52 4.29 1.57 5.56s2.43 1.91 4.14 1.91q2.385 0 3.63-1.38c.83-.92 1.24-2.14 1.24-3.67-1.07.5-2.15.76-3.24.76-1.63 0-2.88-.44-3.73-1.33q-1.29-1.335-1.29-3.84v-3.81h-8.01v-3.39h21.71v3.39h-9.46v3.75c0 1.07.54 1.6 1.63 1.6 1.13 0 2.94-.62 5.44-1.88.6 1.43.89 2.96.89 4.6" class="st4"/><path d="M229 33.17h-2.57v16.9h-4.23V35.05c0-.79-.11-1.3-.32-1.53s-.64-.35-1.29-.35h-.97v-3.39h1.51c.67 0 1.17.34 1.51 1.03-.2-1.09-.3-2.06-.3-2.9v-.54h4.08v2.42H229z" class="st4"/><path d="M246.17 33.17h-2.57v16.9h-4.23l-10.52-4.29.03-.03v-3.99l4.35-2.93-4.26-2.51v-3.15h-1.78v-3.39h18.99v3.39zM233.91 50.3c.45.45.68.99.68 1.62 0 .62-.23 1.16-.68 1.62-.45.45-.99.68-1.62.68s-1.16-.23-1.62-.68c-.45-.45-.68-.99-.68-1.62 0-.62.23-1.16.68-1.62.45-.45.99-.68 1.62-.68s1.17.23 1.62.68m3.34-13.26v3.6l-3.96 2.75 6.08 2.63V33.17h-8.01z" class="st4"/><path d="M253.73 33.17h-2.57v16.9h-4.23V35.05c0-.79-.11-1.3-.32-1.53s-.64-.35-1.29-.35h-.97v-3.39h1.51c.67 0 1.17.34 1.51 1.03-.2-1.09-.3-2.06-.3-2.9v-.54h4.08v2.42h2.57v3.38zM269.33 50.08h-4.23V37.71c0-1.51-.29-2.66-.86-3.43-.57-.78-1.52-1.16-2.83-1.16-1.96 0-3.09.86-3.42 2.57 1.61.08 2.92.55 3.92 1.41s1.51 2.09 1.53 3.7c-.02 1.83-.67 3.22-1.95 4.16q-1.92 1.41-5.16 1.41c-.85 0-1.71-.09-2.6-.27v-3.48c.73.08 1.59.12 2.6.12 1.92 0 2.87-.63 2.87-1.9s-.96-1.91-2.87-1.91h-2.51v-2.06c0-2.1.62-3.85 1.86-5.26s2.92-2.12 5.04-2.12c2.06 0 3.52.66 4.38 1.97v-4.08h4.23v2.42h2.57v3.39h-2.57z" class="st4"/><path d="M286.81 50.08h-4.23c-.12-.85-.29-1.7-.51-2.57s-.52-1.77-.89-2.72q-.555-1.425-1.44-2.31c-.58-.59-1.23-.89-1.94-.89-.69 0-1.2.22-1.54.67-.34.44-.51 1.03-.51 1.75 0 .56.05 1.12.15 1.66h-4.11c-.18-.75-.27-1.44-.27-2.09 0-1.59.49-2.94 1.48-4.05s2.36-1.66 4.11-1.66c2.46 0 4.28 1.2 5.47 3.6v-8.29h-12.49v-3.39h19.02v3.39h-2.3z" class="st4"/><path d="M294.1 50.08h-4.23v-16.9h-2.57v-3.39h2.57V26.1c0-2.14.69-3.73 2.07-4.78s3.27-1.57 5.67-1.57c2.58 0 5.4.38 8.47 1.15v3.08c-1.29-.32-2.94-.58-4.96-.79.32 1.29 1.23 1.94 2.72 1.94.42 0 1.24-.04 2.45-.12s2.17-.12 2.87-.12c1.53 0 2.68.38 3.45 1.15s1.15 1.71 1.15 2.84c0 .2-.02.5-.06.91h2.48v3.39h-2.45c.14.56.21 1.26.21 2.09 0 1.88-.81 3.22-2.42 4.02-.46.26-1.25.65-2.36 1.16q-1.665.765-2.58 1.29c-.62.34-1.2.84-1.74 1.48-.54.65-.82 1.35-.82 2.12 0 1.65 1.17 2.48 3.51 2.48 2 0 2.99-.42 2.99-1.27 0-.77-.7-1.15-2.09-1.15-.36 0-.75.02-1.15.06v-3.3c.46-.06.97-.09 1.51-.09 1.65 0 2.98.4 3.99 1.21s1.51 1.9 1.51 3.27c0 1.45-.65 2.61-1.93 3.46-1.29.86-2.91 1.29-4.87 1.29-2.32 0-4.16-.51-5.53-1.54s-2.06-2.5-2.06-4.42q0-2.235 1.41-3.87c.94-1.09 2.14-1.96 3.61-2.6a3.9 3.9 0 0 1-1.15-1.48c-.3.56-.79 1.05-1.45 1.47-.67.41-1.49.62-2.48.62-1.05 0-2.08-.25-3.08-.76V35.2c1.07.42 2.03.64 2.87.64.87 0 1.48-.21 1.84-.62q.54-.615.54-2.04h-7.92v16.9zm.03-24.01v3.72h15.85q.03-.21.03-.51c0-.81-.56-1.21-1.69-1.21-.62 0-1.47.04-2.53.12q-1.59.12-2.49.12c-1.83-.02-3.2-.53-4.1-1.53s-1.4-2.25-1.5-3.76c-2.38.05-3.57 1.07-3.57 3.05m14.09 10.34c1.09 0 1.63-.61 1.63-1.84 0-.54-.04-1.01-.12-1.39h-3.66c.05 2.15.76 3.23 2.15 3.23" class="st4"/><path d="M337.53 42c0 1.9-.51 3.38-1.53 4.45s-2.42 1.6-4.22 1.6q-.42 0-.63-.03v-3.81h.3c1.33 0 2-.74 2-2.21 0-.99-.36-1.8-1.07-2.45s-1.73-1.01-3.04-1.09v11.61h-4.08v-.03l-.03.03-9.13-6.32V39.7c1.65-1.33 3.17-2.4 4.57-3.22 1.39-.82 2.92-1.39 4.6-1.71v-1.6h-10.89v-3.39h24.8v3.39h-9.83v1.6c2.16.06 4.06.74 5.71 2.04s2.47 3.04 2.47 5.19m-12.28 3.66v-7.08c-1.75.58-3.56 1.64-5.41 3.18zM124.6 102.6h-1.48v9.76h-2.36v-.02l-.02.02-5.27-3.65v-2.34c1.69-1.37 3.45-2.31 5.29-2.81v-.96h-6.28v-1.96h10.12zm-3.84 7.21v-3.93c-1.2.48-2.23 1.04-3.09 1.69z" class="st4"/><path d="M124.3 115.27v1.97l-5.17-1.85v-1.45l1.69-1.95 2.29.37-1.55 1.9zM131.93 102.6h-8.73v-1.96h8.73zm-1.07 9.91h-3.19l-3.19-2.18v-1.92h1.75c.79 0 1.39-.17 1.8-.52.41-.34.61-.81.61-1.4 0-.38-.1-.69-.31-.91q-.3-.33-.81-.33c-.33 0-.59.1-.79.31q-.3.3-.3.78c0 .3.03.56.09.77h-2.22c-.1-.34-.16-.69-.16-1.06 0-.81.3-1.48.9-1.98.6-.51 1.39-.76 2.38-.76 1.07 0 1.93.31 2.58.92.65.62.98 1.37.98 2.27 0 .98-.32 1.76-.95 2.35s-1.48.96-2.52 1.13l3.35 2.29z" class="st4"/><path d="M141.91 102.6h-11.38v-1.96h11.38zm-1.08 8.18c0 .9-.36 1.59-1.07 2.07s-1.61.72-2.69.72c-1.57 0-2.86-.46-3.86-1.38q-1.5-1.38-1.5-4.08c0-.07 0-.17.01-.31 0-.14.01-.24.01-.3h2.36v.47c0 1.33.25 2.26.74 2.79.49.54 1.22.8 2.19.8.45 0 .82-.09 1.1-.26s.42-.44.42-.79c0-.66-.62-1-1.85-1h-.68v-1.87h.37c.5 0 .92-.14 1.25-.42s.5-.64.5-1.08c0-.65-.31-.98-.94-.98-.28 0-.5.09-.65.26s-.24.39-.24.65c0 .28.05.55.14.8h-2.2c-.13-.34-.19-.71-.19-1.12 0-.72.29-1.32.86-1.78.57-.47 1.3-.7 2.2-.7 1.02 0 1.84.27 2.46.82s.92 1.23.92 2.04c0 .61-.18 1.12-.54 1.55s-.85.7-1.47.8c1.56.2 2.35.95 2.35 2.3" class="st4"/><path d="M150.64 102.6h-1.48v9.76h-2.36v-.02l-.02.02-5.27-3.65v-2.34c1.69-1.37 3.45-2.31 5.29-2.81v-.96h-6.28v-1.96h10.12zm-7.23 8.46c.26.26.38.57.38.94s-.13.69-.38.94c-.26.26-.57.38-.94.38s-.69-.13-.94-.38c-.26-.26-.38-.57-.38-.94s.13-.69.38-.94c.26-.26.57-.38.94-.38s.69.13.94.38m3.39-1.25v-3.93c-1.2.48-2.23 1.04-3.09 1.69zM166.28 107.69c0 1.09-.29 1.95-.88 2.57s-1.4.92-2.43.92c-.16 0-.29 0-.37-.02v-2.2h.17c.77 0 1.15-.42 1.15-1.27 0-.57-.21-1.04-.62-1.41s-1-.58-1.75-.63v6.7h-2.36v-.02l-.02.02-5.27-3.65v-2.34c.95-.77 1.83-1.39 2.63-1.86s1.69-.8 2.65-.99v-.92h-6.28v-1.96h14.31v1.96h-5.67v.92c1.25.04 2.34.43 3.3 1.18q1.44 1.14 1.44 3m-7.09 2.12v-4.08q-1.515.51-3.12 1.83z" class="st4"/><path d="M164.71 116.68c-.67-.71-1.38-1.32-2.11-1.83-.33 1.42-1.17 2.13-2.55 2.13-.8 0-1.47-.21-1.99-.65s-.79-1-.79-1.71c0-.75.25-1.35.76-1.81s1.19-.69 2.05-.69c.88 0 1.73.23 2.54.68s1.5.99 2.09 1.61zm-4.63-1.32c.57 0 .9-.44.98-1.31-.37-.12-.69-.17-.94-.17-.27 0-.48.07-.63.2s-.23.31-.23.53c0 .23.08.42.23.55s.35.2.59.2M171.79 104.46c0-.72.18-1.34.54-1.87h-2.58v9.76h-2.44v-9.76h-1.48v-1.96h1.48V98.5q0-1.845 1.2-2.76c.8-.6 1.89-.91 3.27-.91 1.5 0 3.14.22 4.91.66v1.78c-1.22-.29-2.52-.47-3.89-.54q.135.6.51.9c.24.2.61.3 1.08.3.25 0 .72-.02 1.41-.07s1.25-.07 1.66-.07c.88 0 1.55.22 1.99.66s.66.99.66 1.64c0 .12-.01.29-.04.52h1.5v1.96h-1.76c.36.52.54 1.15.54 1.87 0 .83-.2 1.52-.6 2.09s-.95.99-1.65 1.26c-.24.1-.6.23-1.06.38s-.83.27-1.11.38q-.405.165-.87.45c-.31.19-.54.42-.68.71s-.22.62-.22 1c0 1.13.74 1.69 2.22 1.69 1.02 0 1.54-.27 1.54-.82 0-.44-.4-.66-1.21-.66-.21 0-.43.01-.66.04v-1.9c.27-.04.56-.05.87-.05.95 0 1.72.23 2.3.7s.87 1.09.87 1.88c0 .85-.34 1.52-1.03 2.01s-1.59.73-2.71.73c-1.46 0-2.58-.32-3.38-.95s-1.2-1.52-1.2-2.66c0-1.38.65-2.4 1.94-3.05q-1.92-.93-1.92-3.21m-2.02-5.97v2.15h8.15c.01-.08.02-.18.02-.3 0-.46-.33-.7-.98-.7-.36 0-.85.02-1.46.07s-1.09.07-1.44.07c-1.04-.01-1.81-.29-2.32-.83s-.81-1.23-.89-2.07c-.72.25-1.08.79-1.08 1.61m6.3 7.86c.48 0 .87-.11 1.19-.31l-3.05-2.11c-.04.16-.05.34-.05.54 0 .61.17 1.07.52 1.4.34.32.81.48 1.39.48m1.92-1.89c0-.59-.17-1.05-.52-1.36s-.81-.47-1.4-.47c-.43 0-.8.09-1.1.26l2.95 2.13c.05-.14.07-.32.07-.56" class="st4"/><path d="M191.13 102.6h-1.48v9.76h-2.44l-6.08-2.48.02-.02v-2.3l2.51-1.69-2.46-1.45v-1.82h-1.03v-1.96h10.96zm-7.08 9.88q.39.39.39.93c0 .54-.13.67-.39.93q-.39.39-.93.39c-.54 0-.67-.13-.93-.39q-.39-.39-.39-.93c0-.54.13-.67.39-.93s.57-.39.93-.39.67.13.93.39m1.93-7.65v2.08l-2.29 1.59 3.51 1.52v-7.42h-4.63z" class="st4"/><path d="M195.15 102.6h-1.48v9.76h-2.44v-8.67c0-.45-.06-.75-.18-.88s-.37-.2-.74-.2h-.56v-1.96h.87c.38 0 .67.2.87.59-.12-.63-.17-1.19-.17-1.68v-.31h2.36v1.4h1.48v1.95z" class="st4"/><path d="M204.71 102.6h-1.48v9.76h-2.44l-6.07-2.48.02-.02v-2.3l2.51-1.69-2.46-1.45v-1.82h-1.03v-1.96h10.96v1.96zm-7.08 9.88q.39.39.39.93c0 .54-.13.67-.39.93q-.39.39-.93.39c-.54 0-.67-.13-.93-.39q-.39-.39-.39-.93c0-.54.13-.67.39-.93s.57-.39.93-.39.67.13.93.39m1.93-7.65v2.08l-2.29 1.59 3.51 1.52v-7.42h-4.63zM220.35 107.69c0 1.09-.29 1.95-.88 2.57s-1.4.92-2.43.92c-.16 0-.29 0-.37-.02v-2.2h.17c.77 0 1.15-.42 1.15-1.27 0-.57-.21-1.04-.62-1.41s-1-.58-1.75-.63v6.7h-2.36v-.02l-.02.02-5.27-3.65v-2.34q1.425-1.155 2.64-1.86c.8-.47 1.69-.8 2.65-.99v-.92h-6.28v-1.96h14.31v1.96h-5.67v.92c1.25.04 2.34.43 3.3 1.18.95.76 1.43 1.76 1.43 3m-7.09 2.12v-4.08q-1.515.51-3.12 1.83z" class="st4"/><path d="M232.12 102.6h-2.01v9.76h-2.44v-1.48c0-.85-.22-1.53-.65-2.04-.44-.51-1.04-.77-1.82-.77-.49 0-.87.1-1.14.31-.27.2-.41.49-.41.85s.12.63.38.8c.25.17.57.26.95.26.21 0 .43-.01.66-.04v2.01c-.33.07-.72.1-1.17.1-.97 0-1.76-.27-2.38-.82q-.93-.825-.93-2.34c0-.77.2-1.41.6-1.93s.95-.89 1.63-1.11c-.13-.62-.39-1.06-.78-1.33s-.93-.4-1.63-.4v-1.83h-1.06v-1.96h12.22v1.96zm-4.45 4.71v-4.71h-4.49c.7.31 1.26.77 1.68 1.36q.63.885.81 2.04c.91.15 1.58.59 2 1.31M245.1 112.35h-2.36v-.02l-.02.02-7.87-4.05v-1.95h1.66c.93 0 1.63-.23 2.11-.69s.72-1.11.72-1.96v-.05q-.705 1.2-2.16 1.2-1.35 0-2.07-.75c-.48-.5-.72-1.16-.72-1.99 0-.58.09-1.07.28-1.47h2.36c-.12.35-.17.73-.17 1.13 0 .34.08.61.25.81s.41.31.72.31c.4 0 .67-.14.82-.41s.23-.67.23-1.2c0-.28-.01-.49-.02-.65h2.3c.36 1.11.54 2.12.54 3.05 0 1.15-.29 2.07-.88 2.76s-1.38 1.15-2.38 1.38l4.31 2.27V99.25h2.36v1.4h1.48v1.96h-1.48v9.74z" class="st4"/><path d="M255.31 102.6h-1.48v9.76h-2.36v-.02l-.02.02-5.27-3.65v-2.34c1.69-1.37 3.45-2.31 5.29-2.81v-.96h-6.28v-1.96h10.12zm-7.22 8.46c.25.26.38.57.38.94s-.13.69-.38.94c-.26.26-.57.38-.94.38s-.69-.13-.94-.38c-.26-.26-.38-.57-.38-.94s.13-.69.38-.94c.26-.26.57-.38.94-.38s.68.13.94.38m3.38-1.25v-3.93c-1.2.48-2.23 1.04-3.09 1.69z" class="st4"/><path d="M259.4 112.48c-.19.04-.41.05-.66.05-.64 0-1.2-.14-1.68-.41s-.86-.65-1.14-1.13a5.6 5.6 0 0 1-.64-1.59c-.14-.58-.22-1.21-.23-1.88q0-3.645 1.05-4.92h-2.18v-1.96h6.09v1.96h-.58c-.43 0-.79.13-1.07.38s-.49.63-.62 1.13-.22 1.01-.26 1.52c-.05.51-.07 1.14-.07 1.88 0 1.91.53 2.86 1.59 2.86.19 0 .32-.01.4-.02z" class="st4"/><path d="M267.72 107.78c0 1.19-.43 2.28-1.3 3.26-.87.99-1.92 1.48-3.15 1.48q-1.38 0-2.28-.81c-.9-.81-.9-1.28-.9-2.21v-6.91h-1.48v-1.96h10.04v1.96h-6.11v1.03l1.62.47q1.905.555 2.73 1.35c.56.54.83 1.32.83 2.34m-4.41 2.65c.52 0 .98-.29 1.38-.86.39-.57.59-1.17.59-1.8 0-.38-.11-.68-.33-.88s-.62-.39-1.19-.57l-1.22-.38v3.56c0 .63.25.93.77.93M269.68 114.57h-2.2l1.76-4.56h2.81zM280.83 112.48c-.19.04-.4.05-.63.05-1.17 0-2.08-.45-2.72-1.34s-.97-2.11-1-3.67c-.01-.81.02-1.55.1-2.21s.21-1.28.41-1.88c.2-.59.46-1.09.79-1.49s.75-.72 1.27-.95 1.13-.35 1.82-.35h.58v1.96h-.51c-.38 0-.71.1-.98.3s-.47.44-.61.72-.25.67-.33 1.14c-.08.48-.13.91-.15 1.3s-.03.88-.03 1.46c0 1.91.53 2.86 1.59 2.86.19 0 .32-.01.4-.02z" class="st4"/><path d="M289.99 112.35h-2.44v-2.95c0-1.14-.35-1.71-1.06-1.71-.23 0-.45.1-.65.3s-.4.44-.58.72c-.18.29-.38.57-.61.86s-.54.54-.93.73-.86.3-1.4.3c-.48 0-.93-.07-1.36-.21v-2.01c.31.09.65.14 1.01.14.22 0 .43-.06.64-.18q.3-.18.45-.36c.1-.12.25-.32.44-.62.2-.3.33-.49.4-.58-.14-.78-.46-1.37-.95-1.76-.49-.4-1.12-.59-1.89-.59v-1.83h-1.01v-1.96h11.45v1.96H290v9.75zm-4.04-6.72c.74 0 1.28.23 1.61.68v-3.72h-4.24c1.35.58 2.21 1.59 2.57 3.04z" class="st4"/><path d="M300.21 102.6h-1.48v9.76h-2.36v-.02l-.02.02-5.27-3.65v-2.34c1.69-1.37 3.45-2.31 5.29-2.81v-.96h-6.28v-1.96h10.12zm-7.23 8.46c.25.26.38.57.38.94s-.13.69-.38.94c-.26.26-.57.38-.94.38s-.69-.13-.94-.38c-.26-.26-.38-.57-.38-.94s.13-.69.38-.94c.26-.26.57-.38.94-.38s.68.13.94.38m3.39-1.25v-3.93c-1.2.48-2.23 1.04-3.09 1.69z" class="st4"/><path d="M304.22 102.6h-1.48v9.76h-2.44v-8.67c0-.45-.06-.75-.18-.88s-.37-.2-.74-.2h-.56v-1.96h.87c.38 0 .67.2.87.59-.12-.63-.17-1.19-.17-1.68v-.31h2.36v1.4h1.48v1.95zM311.97 112.48c-.19.04-.4.05-.63.05-1.17 0-2.08-.45-2.72-1.34s-.97-2.11-1-3.67c-.01-.81.02-1.55.1-2.21s.21-1.28.41-1.88c.2-.59.46-1.09.79-1.49s.75-.72 1.27-.95 1.13-.35 1.82-.35h.58v1.96h-.51c-.38 0-.71.1-.98.3s-.47.44-.61.72-.25.67-.33 1.14c-.08.48-.13.91-.15 1.3s-.03.88-.03 1.46c0 1.91.53 2.86 1.59 2.86.19 0 .32-.01.4-.02z" class="st4"/><path d="M321.13 112.35h-2.44v-2.95c0-1.14-.35-1.71-1.06-1.71-.23 0-.45.1-.65.3s-.4.44-.58.72c-.18.29-.38.57-.61.86s-.54.54-.93.73-.86.3-1.4.3c-.48 0-.93-.07-1.36-.21v-2.01c.31.09.65.14 1.01.14.22 0 .43-.06.64-.18q.3-.18.45-.36c.1-.12.25-.32.44-.62.2-.3.33-.49.4-.58-.14-.78-.46-1.37-.95-1.76-.49-.4-1.12-.59-1.89-.59v-1.83h-1.01v-1.96h11.45v1.96h-1.5v9.75zm-4.05-6.72c.74 0 1.28.23 1.61.68v-3.72h-4.24c1.35.58 2.21 1.59 2.57 3.04z" class="st4"/><path d="M331.34 102.6h-1.48v9.76h-2.36v-.02l-.02.02-5.27-3.65v-2.34c1.69-1.37 3.45-2.31 5.29-2.81v-.96h-6.28v-1.96h10.12zm-3.84 7.21v-3.93c-1.2.48-2.23 1.04-3.09 1.69z" class="st4"/><path d="M335.36 102.6h-1.48v9.76h-2.44v-8.67c0-.45-.06-.75-.18-.88s-.37-.2-.74-.2h-.56v-1.96h.87c.38 0 .67.2.87.59-.12-.63-.17-1.19-.17-1.68v-.31h2.36v1.4h1.48v1.95zM115.39 89.4H337.8v1.25H115.39z" class="st4"/></svg>